name rise30.2954peak35.7071fall66.7804.mot
datacolumns 19
datarows 12
range 20.83159500000000 20.84992600000000
endheader
time	ground_force1_vx	ground_force1_vy	ground_force1_vz	ground_force1_px	ground_force1_py	ground_force1_pz	ground_force2_vx	ground_force2_vy	ground_force2_vz	ground_force2_px	ground_force2_py	ground_force2_pz	ground_torque1_x	ground_torque1_y	ground_torque1_z	ground_torque2_x	ground_torque2_y	ground_torque2_z	
20.83159500000000	48.68600000000000	765.76604299999997	60.93484000000000	0.25480400000000	0.00000000000000	0.12465100000000	0.00000000000000	0.00000000000000	0.00000000000000	0.00000000000000	0.00000000000000	0.00000000000000	0.00000000000000	18.00741300000000	0.00000000000000	0.00000000000000	0.00000000000000	0.00000000000000	
20.83326100000000	47.96787200000000	768.57951300000002	61.11451100000000	0.25376900000000	0.00000000000000	0.12471000000000	0.00000000000000	0.00000000000000	0.00000000000000	0.00000000000000	0.00000000000000	0.00000000000000	0.00000000000000	18.13066000000000	0.00000000000000	0.00000000000000	0.00000000000000	0.00000000000000	
20.83492500000000	47.24627700000000	771.22749799999997	61.28278400000000	0.25275100000000	0.00000000000000	0.12477000000000	0.00000000000000	0.00000000000000	0.00000000000000	0.00000000000000	0.00000000000000	0.00000000000000	0.00000000000000	18.25044800000000	0.00000000000000	0.00000000000000	0.00000000000000	0.00000000000000	
20.83659300000000	46.52217800000000	773.70817399999999	61.43959400000000	0.25175000000000	0.00000000000000	0.12482900000000	0.00000000000000	0.00000000000000	0.00000000000000	0.00000000000000	0.00000000000000	0.00000000000000	0.00000000000000	18.36661100000000	0.00000000000000	0.00000000000000	0.00000000000000	0.00000000000000	
20.83825900000000	45.79647100000000	776.01994100000002	61.58483300000000	0.25076400000000	0.00000000000000	0.12488800000000	0.00000000000000	0.00000000000000	0.00000000000000	0.00000000000000	0.00000000000000	0.00000000000000	0.00000000000000	18.47896800000000	0.00000000000000	0.00000000000000	0.00000000000000	0.00000000000000	
20.83992400000000	45.06999000000000	778.16143199999999	61.71835900000000	0.24979200000000	0.00000000000000	0.12494600000000	0.00000000000000	0.00000000000000	0.00000000000000	0.00000000000000	0.00000000000000	0.00000000000000	0.00000000000000	18.58732600000000	0.00000000000000	0.00000000000000	0.00000000000000	0.00000000000000	
20.84159000000000	44.34350500000000	780.13153100000000	61.83999400000000	0.24883500000000	0.00000000000000	0.12500400000000	0.00000000000000	0.00000000000000	0.00000000000000	0.00000000000000	0.00000000000000	0.00000000000000	0.00000000000000	18.69147700000000	0.00000000000000	0.00000000000000	0.00000000000000	0.00000000000000	
20.84326100000000	43.61772500000000	781.92938300000003	61.94953100000000	0.24789200000000	0.00000000000000	0.12506100000000	0.00000000000000	0.00000000000000	0.00000000000000	0.00000000000000	0.00000000000000	0.00000000000000	0.00000000000000	18.79120800000000	0.00000000000000	0.00000000000000	0.00000000000000	0.00000000000000	
20.84493100000000	42.89330100000000	783.55441199999996	62.04673700000000	0.24696000000000	0.00000000000000	0.12511800000000	0.00000000000000	0.00000000000000	0.00000000000000	0.00000000000000	0.00000000000000	0.00000000000000	0.00000000000000	18.88629500000000	0.00000000000000	0.00000000000000	0.00000000000000	0.00000000000000	
20.84658900000000	42.17082400000000	785.00632299999995	62.13135600000000	0.24603900000000	0.00000000000000	0.12517500000000	0.00000000000000	0.00000000000000	0.00000000000000	0.00000000000000	0.00000000000000	0.00000000000000	0.00000000000000	18.97651000000000	0.00000000000000	0.00000000000000	0.00000000000000	0.00000000000000	
20.84827100000000	41.45083200000000	786.28511900000001	62.20311200000000	0.24512900000000	0.00000000000000	0.12523100000000	0.00000000000000	0.00000000000000	0.00000000000000	0.00000000000000	0.00000000000000	0.00000000000000	0.00000000000000	19.06162200000000	0.00000000000000	0.00000000000000	0.00000000000000	0.00000000000000	
20.84992600000000	40.73381000000000	787.39110900000003	62.26171800000000	0.24422700000000	0.00000000000000	0.12528800000000	0.00000000000000	0.00000000000000	0.00000000000000	0.00000000000000	0.00000000000000	0.00000000000000	0.00000000000000	19.14139600000000	0.00000000000000	0.00000000000000	0.00000000000000	0.00000000000000	
